<svg xmlns="http://www.w3.org/2000/svg" viewBox="0 0 512 512">
  <!-- Fondo -->
  <rect width="512" height="512" rx="96" fill="#0f172a"/>
  <!-- Tarjeta azul -->
  <rect x="80" y="80" width="352" height="352" rx="48" fill="#3b82f6"/>
  <!-- Texto POS -->
  <text x="256" y="300" font-family="Arial, sans-serif" font-weight="bold" font-size="148" fill="white" text-anchor="middle">POS</text>
  <!-- Línea decorativa (código de barras simplificado) -->
  <rect x="120" y="340" width="12" height="52" rx="2" fill="white" opacity="0.7"/>
  <rect x="142" y="340" width="6" height="52" rx="2" fill="white" opacity="0.7"/>
  <rect x="158" y="340" width="16" height="52" rx="2" fill="white" opacity="0.7"/>
  <rect x="184" y="340" width="8" height="52" rx="2" fill="white" opacity="0.7"/>
  <rect x="202" y="340" width="14" height="52" rx="2" fill="white" opacity="0.7"/>
  <rect x="226" y="340" width="6" height="52" rx="2" fill="white" opacity="0.7"/>
  <rect x="242" y="340" width="18" height="52" rx="2" fill="white" opacity="0.7"/>
  <rect x="270" y="340" width="10" height="52" rx="2" fill="white" opacity="0.7"/>
  <rect x="290" y="340" width="14" height="52" rx="2" fill="white" opacity="0.7"/>
  <rect x="314" y="340" width="6" height="52" rx="2" fill="white" opacity="0.7"/>
  <rect x="330" y="340" width="12" height="52" rx="2" fill="white" opacity="0.7"/>
  <rect x="352" y="340" width="8" height="52" rx="2" fill="white" opacity="0.7"/>
  <rect x="370" y="340" width="22" height="52" rx="2" fill="white" opacity="0.7"/>
</svg>
